Coordinates
version=1
nRows=12
nColumns=33
inDegrees=yes

Units are S.I. units (second, meters, Newtons, ...)
Angles are in degrees.

endheader
time	ground_thorax_rot_x	ground_thorax_rot_y	ground_thorax_rot_z	ground_thorax_tx	ground_thorax_ty	ground_thorax_tz	clav_prot_r	clav_elev_r	scapula_abduction_r	scapula_elevation_r	scapula_upward_rot_r	scapula_winging_r	shoulder_elv_r	plane_of_elev_r	axial_rot_r	elbow_flexion_r	pro_sup_r	wrist_flex_r	wrist_dev_r	clav_prot_l	clav_elev_l	scapula_abduction_l	scapula_elevation_l	scapula_upward_rot_l	scapula_winging_l	shoulder_elv_l	plane_of_elev_l	axial_rot_l	elbow_flexion_l	pro_sup_l	wrist_flex_l	wrist_dev_l
      7.29000000	     26.98028459	     31.35220959	     48.06927158	     38.92762086	    808.52292999	    -44.23131018	     13.42045463	     35.40598776	     28.77686693	     45.00000000	    -45.00000000	   2075.91313110	     70.14826130	     22.69359961	   -172.89844746	   1078.34221833	   -202.24389155	     10.21775673	     15.63277784	    -11.15508392	    -45.00000000	    -37.34796901	     45.00000000	    -45.00000000	   5142.11534028	  -2609.37609637	    133.11594886	   -118.14544793	   1429.57573883	    402.61247194	     14.76338744	    -16.75336368
      7.30000000	     26.82619400	     31.46988888	     48.44933518	     42.47238676	    806.22659563	    -43.99100108	     13.32283589	     35.58062665	     28.64544717	     45.00000000	    -45.00000000	   2076.23858730	     70.22645540	     22.59222773	   -172.17476440	   1078.43699032	   -201.91962037	     10.16116002	     15.53171077	    -11.34546497	    -45.00000000	    -37.23810773	     45.00000000	    -45.00000000	   5141.94824646	  -2609.68436932	    133.28060453	   -118.69152632	   1429.61055174	    402.69469037	     14.61749692	    -16.61359762
      7.31000000	     26.44875292	     31.77816495	     49.13479949	     45.95501794	    803.98395556	    -43.72649709	     13.41358103	     35.53133474	     28.61786014	     45.00000000	    -45.00000000	   2076.32352313	     70.08089206	     22.46389910	   -171.87176109	   1078.71118781	   -201.65088330	     10.15210669	     15.35891491	    -11.56072520	    -45.00000000	    -37.07812534	     45.00000000	    -45.00000000	   5141.88619868	  -2609.86056146	    133.39083431	   -119.24479498	   1429.51225798	    402.81385058	     14.45406853	    -16.42858436
      7.32000000	     26.26434021	     31.93001858	     49.52726670	     49.35877143	    801.80369534	    -43.44065473	     13.35201084	     35.69353563	     28.65315256	     45.00000000	    -45.00000000	   2076.45802556	     69.98936180	     22.35343562	   -171.26587507	   1078.89431808	   -201.27488699	     10.20754221	     15.18804564	    -11.83155854	    -45.00000000	    -36.88573908	     45.00000000	    -45.00000000	   5141.75998473	  -2610.04167162	    133.48545708	   -119.65657390	   1429.45673696	    402.93520371	     14.33987279	    -16.33097593
      7.33000000	     26.04756302	     32.08920208	     49.97127581	     52.66108819	    799.69682039	    -43.13905562	     13.34624463	     35.76155286	     28.51505717	     45.00000000	    -45.00000000	   2076.72444443	     70.06756270	     22.25356593	   -170.67543345	   1079.07118157	   -200.87957194	     10.23669726	     15.02753764	    -11.98500979	    -45.00000000	    -36.79522354	     45.00000000	    -45.00000000	   5141.66007743	  -2610.30240598	    133.65922593	   -120.32937002	   1429.46947578	    403.07560918	     14.13019855	    -16.22875896
      7.34000000	     25.76224583	     32.27326395	     50.48650305	     55.85484050	    797.67216284	    -42.82626535	     13.34860659	     35.81598314	     28.47989652	     45.00000000	    -45.00000000	   2076.83297681	     70.02959470	     22.15717087	   -170.10430948	   1079.26397436	   -200.48028238	     10.33226710	     14.81600494	    -12.19978808	    -45.00000000	    -36.65461193	     45.00000000	    -45.00000000	   5141.57282786	  -2610.48920372	    133.82119599	   -120.95650062	   1429.42985165	    403.24070550	     13.92679474	    -16.12379400
      7.35000000	     25.55070631	     32.41732579	     50.86063460	     58.92573017	    795.74282462	    -42.50856707	     13.34483645	     35.90233102	     28.45032119	     45.00000000	    -45.00000000	   2076.95607920	     69.98262188	     22.07614316	   -169.62059015	   1079.45591803	   -200.05015665	     10.41195599	     14.62786700	    -12.39648557	    -45.00000000	    -36.53274756	     45.00000000	    -45.00000000	   5141.48929790	  -2610.66424435	    133.92029148	   -121.57962180	   1429.41293475	    403.42329440	     13.75167252	    -16.07317196
      7.36000000	     25.33130102	     32.55794706	     51.22783657	     61.87922901	    793.91702550	    -42.18954477	     13.36484773	     35.94851129	     28.40857372	     45.00000000	    -45.00000000	   2077.05510785	     69.90109264	     22.01593183	   -169.20288837	   1079.65580188	   -199.58475692	     10.50198528	     14.43937227	    -12.57877562	    -45.00000000	    -36.41830223	     45.00000000	    -45.00000000	   5141.44150722	  -2610.81581202	    134.00716996	   -122.15752456	   1429.37347897	    403.63982066	     13.57138927	    -16.02289408
      7.37000000	     25.11220002	     32.69100847	     51.61152224	     64.71816699	    792.20327774	    -41.87227321	     13.32686349	     36.01477284	     28.32855294	     45.00000000	    -45.00000000	   2077.23892650	     70.00257206	     21.90063920	   -168.63171816	   1079.78992299	   -199.10126703	     10.61626941	     14.23494191	    -12.69340405	    -45.00000000	    -36.32756824	     45.00000000	    -45.00000000	   5141.35157496	  -2611.02205455	    134.18531997	   -122.87896697	   1429.44175553	    403.85672137	     13.33120216	    -16.00267972
      7.38000000	     24.90957189	     32.80271248	     51.92117067	     67.44355657	    790.61246388	    -41.56039779	     13.32241563	     36.09760930	     28.22445883	     45.00000000	    -45.00000000	   2077.41877281	     70.08901169	     21.83513615	   -168.05042277	   1079.92068070	   -198.62857839	     10.73980060	     14.00875491	    -12.84445796	    -45.00000000	    -36.27433300	     45.00000000	    -45.00000000	   5141.23072968	  -2611.19464989	    134.36293225	   -123.65850819	   1429.48593830	    404.08776708	     13.06712434	    -15.95092330
      7.39000000	     24.66990555	     32.90646770	     52.25442041	     70.02111706	    789.17425421	    -41.26759952	     13.36798594	     36.09881317	     28.08711086	     45.00000000	    -45.00000000	   2077.58765419	     70.13396784	     21.77977312	   -167.64293367	   1080.04738243	   -198.13655175	     10.86870308	     13.72214143	    -12.95721602	    -45.00000000	    -36.20505684	     45.00000000	    -45.00000000	   5141.13426449	  -2611.34098759	    134.53584477	   -124.32818973	   1429.50886955	    404.32617337	     12.79357838	    -15.87667809
      7.40000000	     24.47389588	     33.03472382	     52.51512556	     72.46677577	    787.86019518	    -40.99429108	     13.36570726	     36.15040399	     28.06895480	     45.00000000	    -45.00000000	   2077.67984979	     70.15930378	     21.71372744	   -167.17861890	   1080.20852292	   -197.61274657	     10.98025370	     13.49282719	    -13.08122947	    -45.00000000	    -36.12658149	     45.00000000	    -45.00000000	   5141.07585494	  -2611.45019708	    134.61515973	   -124.98634463	   1429.56740230	    404.56662544	     12.58567105	    -15.85856534
